<?xml version="1.0" encoding="UTF-8"?>
<svg xmlns="http://www.w3.org/2000/svg" width="3840" height="2160">
  <rect width="3840" height="2160" fill="#282828"/>
  <g opacity="0.19">
    <line x1="1222" y1="21" x2="705" y2="1203" stroke="#fb4934" stroke-width="2.5"/>
    <line x1="2233" y1="323" x2="3500" y2="1973" stroke="#fb4934" stroke-width="1.1"/>
    <line x1="1615" y1="864" x2="2887" y2="-182" stroke="#fe8019" stroke-width="2.4"/>
    <line x1="3645" y1="1466" x2="3946" y2="477" stroke="#fe8019" stroke-width="2.4"/>
    <circle cx="2981" cy="118" r="239" fill="none" stroke="#fe8019" stroke-width="3.6"/>
    <circle cx="104" cy="1578" r="485" fill="none" stroke="#fe8019" stroke-width="3.2"/>
    <circle cx="2383" cy="173" r="371" fill="none" stroke="#fe8019" stroke-width="3.7"/>
    <circle cx="2341" cy="1627" r="144" fill="none" stroke="#fe8019" stroke-width="3.1"/>
    <circle cx="3310" cy="2011" r="383" fill="none" stroke="#fb4934" stroke-width="3.3"/>
    <circle cx="2805" cy="197" r="102" fill="none" stroke="#fe8019" stroke-width="3.2"/>
    <circle cx="1632" cy="329" r="418" fill="none" stroke="#fe8019" stroke-width="3.6"/>
    <circle cx="2931" cy="139" r="310" fill="none" stroke="#fb4934" stroke-width="3.1"/>
    <circle cx="1245" cy="787" r="236" fill="none" stroke="#fb4934" stroke-width="2.4"/>
    <circle cx="1245" cy="787" r="295" fill="none" stroke="#fb4934" stroke-width="1.3"/>
    <circle cx="1245" cy="787" r="354" fill="none" stroke="#fb4934" stroke-width="1.6"/>
    <circle cx="1245" cy="787" r="413" fill="none" stroke="#fe8019" stroke-width="3.8"/>
    <circle cx="1245" cy="787" r="472" fill="none" stroke="#fe8019" stroke-width="3.7"/>
    <circle cx="1245" cy="787" r="531" fill="none" stroke="#fb4934" stroke-width="1.9"/>
  </g>
  <g opacity="0.04">
    <rect x="0" y="0" width="374" height="3" fill="#fe8019"/>
    <rect x="0" y="0" width="3" height="374" fill="#fe8019"/>
    <rect x="3466" y="0" width="374" height="3" fill="#fe8019"/>
    <rect x="3837" y="0" width="3" height="374" fill="#fe8019"/>
    <rect x="0" y="2157" width="374" height="3" fill="#fe8019"/>
    <rect x="0" y="1786" width="3" height="374" fill="#fe8019"/>
    <rect x="3466" y="2157" width="374" height="3" fill="#fe8019"/>
    <rect x="3837" y="1786" width="3" height="374" fill="#fe8019"/>
  </g>
</svg>